<svg width="20" height="21" viewBox="0 0 20 21" fill="none" xmlns="http://www.w3.org/2000/svg">
<path fill-rule="evenodd" clip-rule="evenodd" d="M9 0.261963C13.9706 0.261963 18 4.38734 18 9.47625C18 11.6516 17.2637 13.6509 16.0323 15.2272L19.7071 18.9904C20.0976 19.3902 20.0976 20.0385 19.7071 20.4383C19.3466 20.8074 18.7794 20.8357 18.3871 20.5235L18.2929 20.4383L14.6172 16.676C13.0776 17.9367 11.1248 18.6905 9 18.6905C4.02944 18.6905 0 14.5652 0 9.47625C0 4.38734 4.02944 0.261963 9 0.261963ZM9 2.30957C5.13401 2.30957 2 5.5182 2 9.47624C2 13.4343 5.13401 16.6429 9 16.6429C12.866 16.6429 16 13.4343 16 9.47624C16 5.5182 12.866 2.30957 9 2.30957Z" fill="#1D1D1D"/>
</svg>
